<?xml version="1.0" standalone="no"?>
<!DOCTYPE svg PUBLIC "-//W3C//DTD SVG 20010904//EN"
 "http://www.w3.org/TR/2001/REC-SVG-20010904/DTD/svg10.dtd">
<svg version="1.0" xmlns="http://www.w3.org/2000/svg"
 width="2732.000000pt" height="2048.000000pt" viewBox="0 0 2732.000000 2048.000000"
 preserveAspectRatio="xMidYMid meet">

<g transform="translate(0.000000,2048.000000) scale(0.100000,-0.100000)"
fill="#000000" stroke="none">
<path d="M16804 14212 c-212 -198 -665 -584 -1094 -932 -620 -503 -1142 -946
-1675 -1419 -599 -532 -1489 -1296 -1834 -1573 -183 -148 -678 -520 -872 -656
-171 -120 -442 -288 -544 -337 -137 -66 -187 -80 -291 -80 -85 0 -94 2 -134
30 -86 60 -163 195 -264 468 -124 332 -160 446 -281 877 -73 261 -147 387
-290 497 -83 64 -248 147 -323 162 -79 16 -254 14 -326 -5 -193 -50 -346 -191
-346 -319 0 -87 9 -103 153 -272 104 -121 152 -242 237 -593 74 -303 196 -740
245 -875 134 -369 231 -533 444 -745 246 -245 450 -340 731 -340 211 0 384 51
695 205 245 121 370 194 665 390 639 424 1016 751 2365 2051 704 679 1032
1014 1440 1474 626 703 910 1086 1241 1665 77 135 108 200 125 262 34 125 16
142 -67 65z"/>
<path d="M16652 11696 c-466 -89 -1293 -591 -2077 -1261 -332 -284 -982 -895
-1824 -1714 -765 -745 -1503 -1570 -1903 -2126 -104 -146 -320 -486 -435 -688
-110 -191 -164 -357 -117 -357 9 0 73 51 143 113 247 222 645 559 1008 853
621 505 1137 942 1668 1414 796 707 1654 1438 2030 1729 675 524 1160 844
1388 916 161 51 261 29 348 -78 118 -146 292 -612 479 -1282 47 -170 86 -258
159 -361 84 -120 285 -254 434 -289 83 -20 262 -19 339 0 115 30 221 90 281
159 36 42 67 120 67 171 0 69 -25 117 -112 213 -41 46 -89 107 -107 136 -48
79 -99 213 -127 333 -56 235 -218 835 -258 958 -139 417 -244 602 -466 825
-167 168 -318 266 -487 316 -110 32 -315 42 -431 20z"/>
<path d="M20752 10600 c-87 -18 -146 -71 -193 -175 -54 -119 -383 -1043 -514
-1445 -21 -63 -48 -141 -61 -172 -29 -69 -30 -113 -5 -154 40 -66 22 -64 713
-64 600 0 624 1 655 20 84 51 82 171 -4 227 -25 17 -65 18 -541 21 -479 3
-513 4 -508 20 3 9 52 149 109 310 l103 293 508 -1 c489 0 510 0 550 20 104
50 100 182 -7 230 -39 18 -70 20 -501 20 -398 0 -457 2 -453 15 18 45 167 497
176 532 l12 42 522 3 c465 3 526 5 559 20 42 19 78 69 78 108 0 41 -34 93 -76
114 -38 20 -56 21 -559 23 -286 1 -539 -3 -563 -7z"/>
<path d="M5987 10589 c-51 -12 -120 -61 -144 -101 -43 -73 -107 -241 -290
-763 -270 -770 -335 -963 -339 -1005 -6 -55 19 -100 68 -127 31 -17 75 -18
658 -18 595 0 627 1 656 19 42 25 64 65 64 116 0 55 -25 96 -75 120 -39 19
-64 20 -538 20 -391 0 -497 3 -497 13 0 6 47 144 104 306 l103 294 514 1 c566
1 549 -1 599 63 30 38 24 121 -11 159 -48 52 -52 53 -542 55 -251 2 -457 6
-457 10 0 4 41 129 90 277 50 149 90 276 90 284 0 11 82 14 498 13 558 0 580
2 632 61 52 60 32 150 -42 191 -30 17 -74 18 -568 20 -299 1 -552 -3 -573 -8z"/>
<path d="M2547 10580 c-26 -5 -71 -22 -100 -38 -90 -50 -79 -19 -396 -1116
-105 -362 -191 -673 -191 -690 0 -66 65 -136 127 -136 12 0 42 -8 65 -17 36
-15 76 -18 253 -18 178 0 227 4 323 23 306 62 576 191 757 363 233 222 361
514 341 777 -26 339 -186 551 -551 732 -223 111 -438 152 -628 120z m328 -291
c135 -42 332 -152 431 -242 116 -105 176 -307 140 -476 -37 -173 -161 -359
-324 -482 -135 -102 -373 -200 -568 -234 -51 -9 -147 -15 -234 -15 l-147 0 64
223 c208 723 324 1130 339 1191 l17 69 106 -6 c66 -4 132 -14 176 -28z"/>
<path d="M23605 10560 c-105 -12 -155 -55 -155 -134 0 -36 33 -86 74 -109 14
-8 99 -14 266 -17 210 -4 245 -7 244 -20 -1 -8 -23 -109 -48 -225 -114 -510
-286 -1331 -286 -1364 0 -70 64 -141 125 -141 40 1 103 38 120 71 10 17 41
143 70 278 91 419 252 1191 270 1294 10 53 22 98 29 98 6 1 211 1 456 0 509
-2 549 1 597 53 43 46 49 77 29 131 -12 30 -29 51 -54 67 l-37 23 -820 1
c-451 1 -847 -2 -880 -6z"/>
</g>
</svg>
